<svg xmlns="http://www.w3.org/2000/svg" viewBox="0 0 634.15 72.02">
    <title>Drinks and Co</title>
    <style>
        .fill-color {
            fill: #0048BB;
        }
    </style>
    <g>
        <g>
            <path class="fill-color" d="M0,70.63H25.89c21.82,0,36.9-15.18,36.9-34.72v-.2c0-19.54-15.08-34.52-36.9-34.52H0ZM12.2,59.52V12.3H25.89C40.47,12.3,50,22.32,50,35.91v.2c0,13.59-9.53,23.41-24.11,23.41Z"/>
            <path class="fill-color" d="M77.6,70.63H89.8V46.43h15.28l17.06,24.2h14.38L117.77,44.34c9.72-2.77,16.57-9.62,16.57-21v-.2a21,21,0,0,0-5.75-15c-4.47-4.36-11.31-6.94-20-6.94H77.6Zm12.2-35V12.3h17.75c9,0,14.39,4.07,14.39,11.51V24c0,7-5.56,11.6-14.29,11.6Z"/>
            <path class="fill-color" d="M150,70.63h12.2V1.19H150Z"/>
            <path class="fill-color" d="M180.77,70.63h12V21.23l38.29,49.4h10.22V1.19h-12v48l-37.2-48H180.77Z"/>
            <path class="fill-color" d="M259.14,70.63h12.2V50.49l10.81-11.11,23.71,31.25h14.78L290.49,31.05,319.35,1.19h-15l-33,34.92V1.19h-12.2Z"/>
            <path class="fill-color" d="M355.33,71.62c14.58,0,24.8-7.74,24.8-20.73v-.2c0-11.51-7.64-16.76-22.32-20.33-13.3-3.18-16.47-5.56-16.47-10.92v-.2c0-4.56,4.17-8.23,11.31-8.23,6.35,0,12.6,2.48,18.84,7.14L378,8.93A38.45,38.45,0,0,0,352.85.2c-13.79,0-23.71,8.23-23.71,20.14v.2c0,12.79,8.33,17.16,23.11,20.73,12.9,3,15.67,5.65,15.67,10.61v.2c0,5.26-4.76,8.73-12.3,8.73-8.63,0-15.27-3.27-21.92-9l-7.34,8.73A42.77,42.77,0,0,0,355.33,71.62Z"/>
            <path class="fill-color" d="M457.47,72l9-6.45L455.58,54.46A110.3,110.3,0,0,0,465,38.59l-9.23-4.86a100.09,100.09,0,0,1-7.44,13.39L436.44,35c9.22-3.47,15.27-8.93,15.27-18.06v-.2C451.71,7.44,444.27,0,433.26,0c-12.4,0-19.94,8.13-19.94,17.46v.2c0,5.06,1.79,9.42,5.76,14.48-9.53,4.07-14.79,10.52-14.79,19.44v.2c0,12,9.73,19.84,22.62,19.84,8.43,0,15.38-3.47,21.33-9ZM430,28.47c-3.87-4.26-5.26-6.84-5.26-10.32V18c0-4.86,3.27-8.34,8.23-8.34a7.53,7.53,0,0,1,7.94,7.84v.2C440.9,22.62,437.13,25.89,430,28.47Zm-1.79,33c-6.74,0-11.6-4.26-11.6-10.11v-.2c0-4.47,2.77-8.73,9.22-11.51L441.3,55.45C437.33,59.22,433,61.5,428.2,61.5Z"/>
            <path class="fill-color" d="M525.55,71.82c13,0,20.93-4.76,28.17-12.3l-7.84-7.94c-6,5.56-11.4,9-19.93,9-13.3,0-22.92-11.11-22.92-24.7v-.2c0-13.59,9.62-24.5,22.92-24.5,7.93,0,13.88,3.47,19.44,8.63l7.84-9C546.58,4.46,538.84,0,526,0c-21,0-35.81,16.17-35.81,35.91v.2C490.23,56.05,505.31,71.82,525.55,71.82Z"/>
            <path class="fill-color" d="M597.74,71.82c21.33,0,36.41-16.37,36.41-35.91v-.2C634.15,16.17,619.27,0,597.94,0s-36.41,16.37-36.41,35.91v.2C561.53,55.65,576.41,71.82,597.74,71.82Zm.2-11.21c-13.79,0-23.61-11.21-23.61-24.7v-.2c0-13.49,9.62-24.5,23.41-24.5s23.61,11.21,23.61,24.7v.2C621.35,49.6,611.73,60.61,597.94,60.61Z"/>
        </g>
    </g>
</svg>