<svg xmlns="http://www.w3.org/2000/svg" xmlns:xlink="http://www.w3.org/1999/xlink" viewBox="0 0 1029.58 318.98"><defs><style>.cls-1{fill:none;}.cls-2{clip-path:url(#clip-path);}.cls-3{fill:#0048bb;}.cls-4{fill:#fff;}</style><clipPath id="clip-path" transform="translate(-0.18 -0.02)"><rect class="cls-1" width="1029.67" height="320.19"/></clipPath></defs><title>Recurso 1</title><g id="Capa_2" data-name="Capa 2"><g id="Capa_1-2" data-name="Capa 1"><g class="cls-2"><path class="cls-3" d="M395.61,195.37H421.5c21.83,0,36.9-15.18,36.9-34.72v-.2c0-19.54-15.07-34.52-36.9-34.52H395.61Zm12.2-11.11V137H421.5c14.58,0,24.11,10,24.11,23.61v.2c0,13.59-9.53,23.41-24.11,23.41Z" transform="translate(-0.18 -0.02)"/><path class="cls-3" d="M473.21,195.37h12.2V171.16h15.28l17.06,24.21h14.38l-18.75-26.29c9.73-2.78,16.57-9.62,16.57-21v-.2a21,21,0,0,0-5.75-15c-4.47-4.36-11.31-6.94-20-6.94h-31Zm12.2-35V137h17.76c9,0,14.38,4.06,14.38,11.5v.2c0,7-5.55,11.61-14.28,11.61Z" transform="translate(-0.18 -0.02)"/><rect class="cls-3" x="545.41" y="125.91" width="12.2" height="69.44"/><polygon class="cls-3" points="576.2 195.35 588.2 195.35 588.2 145.94 626.5 195.35 636.71 195.35 636.71 125.91 624.71 125.91 624.71 173.92 587.51 125.91 576.2 125.91 576.2 195.35"/><polygon class="cls-3" points="654.57 195.35 666.77 195.35 666.77 175.21 677.59 164.1 701.29 195.35 716.08 195.35 685.92 155.77 714.79 125.91 699.81 125.91 666.77 160.82 666.77 125.91 654.57 125.91 654.57 195.35"/><path class="cls-3" d="M750.94,196.36c14.58,0,24.8-7.74,24.8-20.73v-.2c0-11.51-7.64-16.77-22.32-20.34-13.3-3.17-16.47-5.55-16.47-10.91V144c0-4.56,4.17-8.23,11.31-8.23,6.35,0,12.6,2.48,18.85,7.14l6.54-9.23a38.48,38.48,0,0,0-25.19-8.72c-13.79,0-23.71,8.23-23.71,20.13v.2c0,12.8,8.33,17.16,23.11,20.73,12.9,3,15.68,5.66,15.68,10.62v.2c0,5.25-4.77,8.73-12.31,8.73-8.63,0-15.27-3.28-21.92-9L722,185.25a42.77,42.77,0,0,0,29,11.11" transform="translate(-0.18 -0.02)"/><path class="cls-3" d="M853.08,196.76l9-6.45L851.19,179.2a110.3,110.3,0,0,0,9.43-15.87l-9.23-4.87a99.61,99.61,0,0,1-7.44,13.4l-11.9-12.11c9.22-3.47,15.27-8.92,15.27-18.05v-.2c0-9.32-7.44-16.76-18.45-16.76-12.4,0-19.94,8.13-19.94,17.46v.19c0,5.06,1.79,9.43,5.76,14.49-9.52,4.06-14.78,10.51-14.78,19.44v.2c0,12,9.72,19.84,22.61,19.84,8.44,0,15.38-3.47,21.33-9ZM825.6,153.21c-3.87-4.27-5.26-6.85-5.26-10.32v-.2c0-4.86,3.28-8.33,8.24-8.33a7.52,7.52,0,0,1,7.93,7.84v.19c0,5-3.77,8.24-10.91,10.82m-1.79,33c-6.74,0-11.6-4.26-11.6-10.12v-.2c0-4.46,2.78-8.73,9.22-11.5l15.48,15.77c-4,3.77-8.33,6.05-13.1,6.05" transform="translate(-0.18 -0.02)"/><path class="cls-3" d="M921.16,196.56c13,0,20.93-4.76,28.17-12.3l-7.84-7.94c-6,5.56-11.4,9-19.93,9-13.3,0-22.92-11.11-22.92-24.7v-.2c0-13.59,9.62-24.5,22.92-24.5,7.93,0,13.88,3.47,19.44,8.63l7.84-9c-6.65-6.35-14.39-10.81-27.19-10.81-21,0-35.81,16.17-35.81,35.91v.2c0,19.93,15.08,35.71,35.32,35.71" transform="translate(-0.18 -0.02)"/><path class="cls-3" d="M993.35,196.56c21.33,0,36.41-16.37,36.41-35.91v-.2c0-19.54-14.88-35.71-36.21-35.71s-36.41,16.36-36.41,35.91v.2c0,19.54,14.88,35.71,36.21,35.71m.2-11.21c-13.79,0-23.61-11.21-23.61-24.7v-.2c0-13.49,9.62-24.5,23.41-24.5s23.61,11.21,23.61,24.7v.2c0,13.49-9.62,24.5-23.41,24.5" transform="translate(-0.18 -0.02)"/><path class="cls-3" d="M159.67,0A159.49,159.49,0,1,1,.18,159.51,159.49,159.49,0,0,1,159.67,0" transform="translate(-0.18 -0.02)"/><path class="cls-4" d="M74.22,68.15,111,124.57l36.8-56.42ZM92.33,78h37.36L111,106.61Z" transform="translate(-0.18 -0.02)"/><rect class="cls-4" x="91.21" y="134.36" width="39.25" height="9.81"/><rect class="cls-4" x="105.93" y="114.74" width="9.81" height="29.44"/><rect class="cls-4" x="96.11" y="85.3" width="29.43" height="9.81"/><path class="cls-4" d="M110.14,247.26c13,0,20.86-4.75,28.08-12.26l-7.81-7.91c-5.94,5.53-11.37,9-19.88,9-13.25,0-22.84-11.07-22.84-24.62v-.2c0-13.54,9.59-24.42,22.84-24.42,7.91,0,13.84,3.46,19.38,8.6l7.81-9c-6.62-6.32-14.33-10.77-27.09-10.77-21,0-35.7,16.11-35.7,35.79v.2c0,19.87,15,35.6,35.21,35.6" transform="translate(-0.18 -0.02)"/><path class="cls-4" d="M211.92,247.26c21.26,0,36.29-16.32,36.29-35.8v-.19c0-19.48-14.83-35.6-36.09-35.6S175.83,192,175.83,211.46v.2c0,19.48,14.83,35.6,36.09,35.6m.2-11.18c-13.75,0-23.54-11.17-23.54-24.62v-.19c0-13.45,9.59-24.43,23.34-24.43s23.53,11.17,23.53,24.62v.2c0,13.45-9.59,24.42-23.33,24.42" transform="translate(-0.18 -0.02)"/><path class="cls-4" d="M233.61,143.37l9-6.42-10.88-11.08a108.12,108.12,0,0,0,9.39-15.82l-9.19-4.85a100,100,0,0,1-7.42,13.35l-11.86-12.06c9.19-3.46,15.22-8.9,15.22-18v-.2c0-9.29-7.41-16.71-18.39-16.71-12.36,0-19.87,8.11-19.87,17.41v.19c0,5,1.78,9.4,5.73,14.44-9.49,4.06-14.73,10.48-14.73,19.38v.2c0,12,9.69,19.78,22.54,19.78,8.41,0,15.33-3.46,21.26-9ZM206.22,100c-3.86-4.25-5.24-6.82-5.24-10.28v-.2c0-4.84,3.26-8.3,8.21-8.3A7.5,7.5,0,0,1,217.1,89v.19c0,4.95-3.76,8.21-10.88,10.78m-1.78,32.93c-6.73,0-11.57-4.25-11.57-10.09v-.19c0-4.45,2.77-8.7,9.2-11.47l15.42,15.72c-4,3.76-8.3,6-13.05,6" transform="translate(-0.18 -0.02)"/></g></g></g></svg>